# xmcd
#
# Track frame offsets:
#	150
#	14252
#	28054
#	46806
#	62258
#	73885
#	87237
#	100589
#	112891
#	129543
#	141170
#	159772
#
# Disc length: 2283 seconds
#
# Revision: 1
# Processed by: cddbd v1.5.2PL0 Copyright (c) Steve Scherf et al.
# Submitted via: EasyCDDAExtractor 16.0.8.2
#
DISCID=9008e90c
DTITLE=Νταλάρας Γιώργος - Μικρές πολιτείες-Σταύρος Κουγιουμτζής
DYEAR=1995
DGENRE=Έντεχνη λαϊκή
TTITLE0=Νταλάρας Γιώργος - Νά 'μουν ο Μεγαλέξανδρος [Σ. Κουγιουμτζής-Σ. Τσώτου
TTITLE0=]
TTITLE1=Νταλάρας Γιώργος - Ήταν πέντε ήταν έξη [Σ. Κουγιουμτζής]
TTITLE2=Νταλάρας Γιώργος - Του κάτω κόσμου τα πουλιά [Σ. Κουγιουμτζής-Μ. Ελευθ
TTITLE2=ερίου]
TTITLE3=Βίσση Άννα - Σ' αγαπώ [Σ. Κουγιουμτζής-Μ. Κορφιάτης]
TTITLE4=Νταλάρας Γιώργος - Αν σε δω σε ξένα χέρια [Σ. Κουγιουμτζής]
TTITLE5=Νταλάρας Γιώργος - Τώρα που θα φύγης [Σ. Κουγιουμτζής-Μ. Ελευθερίου]
TTITLE6=Νταλάρας Γιώργος - Το πουκάμισο το θαλασσί [Σ. Κουγιουμτζής-Μ. Κορφιάτ
TTITLE6=ης]
TTITLE7=Νταλάρας Γιώργος - Αυγερινό παράπονο [Σ. Κουγιουμτζής-Μ. Κορφιάτης]
TTITLE8=Νταλάρας Γιώργος - Τα πρώτα λόγια (Παληό Λαϊκό)[Σ. Κουγιουμτζής-Μ. Ελε
TTITLE8=υθερίου]
TTITLE9=Νταλάρας Γιώργος - Τα χρέη της καρδιάς σου [Σ. Κουγιουμτζής-Μ. Ελευθερ
TTITLE9=ίου]
TTITLE10=Βίσση Άννα - Δίψασα στην πόρτα σου [Σ. Κουγιουμτζής-Μ. Ελευθερίου]
TTITLE11=Άνευ ερμηνευτού - Μικρές πολιτείες [ορχηστρικό, Σ. Κουγιουμτζής]
EXTD=
EXTT0=
EXTT1=
EXTT2=
EXTT3=
EXTT4=
EXTT5=
EXTT6=
EXTT7=
EXTT8=
EXTT9=
EXTT10=
EXTT11=
PLAYORDER=
